<?xml version="1.0" encoding="utf-8"?>
<svg viewBox="0 0 1643.169 530.963" xmlns="http://www.w3.org/2000/svg" xmlns:xlink="http://www.w3.org/1999/xlink">
  <defs>
    <g id="id-0.7074568088612447-2">
      <polygon fill="#B3B4B4" points="95.261,98.953 73.345,96.2 74.22,90.577 94.461,93.724 "/>
      <path fill="#B3B4B4" d="M38.105,224.49c-0.05,0-0.099,0-0.149-0.001c-2.943-0.039-5.694-1.221-7.748-3.33  c-4.239-4.352-4.147-11.342,0.205-15.581c2.108-2.054,4.884-3.157,7.833-3.124c2.943,0.039,5.694,1.222,7.748,3.33  c4.239,4.352,4.147,11.342-0.205,15.58C43.716,223.383,40.992,224.49,38.105,224.49z M38.098,207.494  c-1.567,0-3.044,0.6-4.169,1.695c-2.361,2.3-2.411,6.092-0.111,8.453c1.114,1.144,2.607,1.785,4.204,1.806  c1.609,0.014,3.106-0.581,4.25-1.695c2.361-2.3,2.411-6.092,0.112-8.453l0,0c-1.114-1.144-2.607-1.785-4.204-1.806  C38.152,207.494,38.125,207.494,38.098,207.494z"/>
      <ellipse transform="matrix(0.7249 -0.6888 0.6888 0.7249 31.7828 174.5914)" fill="#B3B4B4" cx="234.5" cy="47.5" rx="4.4" ry="4.4"/>
      <path fill="#B3B4B4" d="M156.299,159.176l-1.714-5.053c3.929-1.333,6.042-5.614,4.709-9.543c-0.645-1.903-1.994-3.442-3.796-4.331  c-1.803-0.89-3.844-1.024-5.747-0.378l-1.714-5.053c3.254-1.103,6.741-0.874,9.822,0.646c3.08,1.52,5.385,4.149,6.488,7.402  C166.625,149.582,163.015,156.898,156.299,159.176z"/>
      <ellipse transform="matrix(0.7249 -0.6888 0.6888 0.7249 -74.7837 111.7244)" fill="#B3B4B4" cx="102.5" cy="149.5" rx="4.4" ry="4.4"/>
      <polygon fill="#B3B4B4" points="231.486,249.178 247.065,235.877 252.857,238.786 235.18,253.505 "/>
      <polygon fill="#B3B4B4" points="115.367,21.954 103.961,43.014 100.239,36.891 110.431,19.123 "/>
      <path fill="#B3B4B4" d="M222.104,130.57c-0.044,0-0.088,0-0.132-0.001c-2.596-0.034-5.024-1.077-6.835-2.937  c-3.74-3.84-3.659-10.006,0.181-13.746c1.86-1.812,4.308-2.785,6.91-2.756c2.596,0.034,5.024,1.078,6.835,2.938  c3.74,3.839,3.659,10.006-0.181,13.745C227.054,129.594,224.651,130.57,222.104,130.57z M222.099,115.576  c-1.382,0-2.686,0.53-3.678,1.496c-2.083,2.029-2.127,5.374-0.098,7.458c0.983,1.009,2.3,1.575,3.708,1.594  c1.42,0.013,2.74-0.512,3.749-1.495c2.083-2.029,2.127-5.374,0.098-7.457l0,0c-0.983-1.009-2.3-1.575-3.708-1.594  C222.146,115.576,222.122,115.576,222.099,115.576z"/>
      <path fill="#B3B4B4" d="M184.509,10.022l-4.015,1.058c-0.822-3.122-4.032-4.993-7.154-4.17c-1.512,0.398-2.779,1.362-3.567,2.713  c-0.788,1.352-1.003,2.929-0.603,4.44l-4.015,1.058c-0.681-2.585-0.315-5.28,1.031-7.589c1.346-2.309,3.511-3.956,6.096-4.637  C177.619,1.489,183.103,4.687,184.509,10.022z"/>
      <g transform="matrix(0.9912 0.1325 -0.1325 0.9912 30.542 -14.083) translate(121.067,222.398) scale(0.6786666666666666)">
        <g class="ld ld-pulse" style="animation-delay:0s">
          <g data-icon="">
            <use transform="matrix(1, 0, 0, 1, -50, -50)" xlink:href="#id-0.7074568088612447"/>
          </g>
        </g>
      </g>
      <g transform="matrix(-0.0456 0.999 -0.999 -0.0456 243.7065 -82.5047) translate(161.268,75.17099999999999) scale(0.47706666666666664)">
        <g class="ld ld-pulse" style="animation-delay:-0.1s">
          <g data-icon="">
            <use transform="matrix(1, 0, 0, 1, -50, -50)" xlink:href="#id-0.7074568088612447"/>
          </g>
        </g>
      </g>
      <g transform="matrix(0.5905 -0.8071 0.8071 0.5905 -67.6584 252.8308) translate(215.293,193.0815) scale(0.5214666666666667)">
        <g class="ld ld-pulse" style="animation-delay:-0.2s">
          <g data-icon="">
            <use transform="matrix(1, 0, 0, 1, -50, -50)" xlink:href="#id-0.7074568088612447"/>
          </g>
        </g>
      </g>
      <g transform="matrix(-0.4749 -0.8801 0.8801 -0.4749 38.8277 99.7848) translate(49.185,38.308499999999995) scale(0.5980444444444444)">
        <g class="ld ld-pulse" style="animation-delay:-0.3s">
          <g data-icon="">
            <use transform="matrix(1, 0, 0, 1, -50, -50)" xlink:href="#id-0.7074568088612447"/>
          </g>
        </g>
      </g>
      <g transform="matrix(0.7381 -0.6747 0.6747 0.7381 -85.9069 63.1885) translate(38.434,142.243) scale(0.607688888888889)">
        <g class="ld ld-pulse" style="animation-delay:-0.4s">
          <g data-icon="">
            <use transform="matrix(1, 0, 0, 1, -50, -50)" xlink:href="#id-0.7074568088612447"/>
          </g>
        </g>
      </g>
    </g>
    <g id="id-0.7074568088612447">
      <style type="text/css">.st19{fill:#0071bc}</style>
      <g>
        <path class="st19" d="M50.002,90.85L50.002,90.85c-2.292,0-4.15-1.548-4.15-3.459V65.126c0-1.91,1.858-3.459,4.15-3.459h0 c2.292,0,4.15,1.548,4.15,3.459v22.265C54.151,89.302,52.293,90.85,50.002,90.85z"/>
      </g>
      <g>
        <path class="st19" d="M47.067,93.785L28.708,75.426c-1.621-1.62-1.621-4.248,0-5.868l0,0c1.621-1.621,4.248-1.621,5.869,0 l12.49,12.49c1.621,1.621,4.248,1.621,5.869,0l12.489-12.49c1.621-1.621,4.248-1.621,5.869,0l0,0c1.62,1.621,1.62,4.248,0,5.868 L52.936,93.785C51.315,95.405,48.688,95.405,47.067,93.785z"/>
      </g>
      <g>
        <path class="st19" d="M50,69.12l-2.258-1.617c-3.25-2.326-31.752-23.254-31.752-41.394c0-0.105,0.003-0.21,0.007-0.314 l-0.002-0.035c-0.012-0.247-0.023-0.493-0.023-0.743c0-1.369,0.142-2.745,0.421-4.089C18.311,11.698,26.552,5,35.988,5 c4.006,0,7.874,1.181,11.184,3.415c1.009,0.681,1.956,1.458,2.827,2.318c0.871-0.859,1.819-1.637,2.827-2.317 C56.138,6.181,60.005,5,64.012,5c9.436,0,17.677,6.698,19.595,15.928c0.279,1.343,0.421,2.719,0.421,4.089 c0,0.25-0.011,0.497-0.023,0.743l-0.002,0.035c0.004,0.128,0.007,0.221,0.007,0.314c0,18.14-28.502,39.068-31.752,41.394L50,69.12z M35.988,12.758c-5.779,0-10.825,4.1-11.999,9.748c-0.172,0.826-0.259,1.67-0.259,2.51c0,0.118,0.008,0.235,0.013,0.352 l0.015,0.313l-0.008,0.378C23.748,37.128,41,52.623,49.999,59.518c8.999-6.901,26.253-22.403,26.253-33.408l-0.009-0.429 l0.015-0.313c0.006-0.116,0.013-0.233,0.013-0.352c0-0.84-0.087-1.684-0.259-2.51c-1.174-5.649-6.221-9.749-12-9.749 c-2.454,0-4.821,0.722-6.845,2.088c-1.544,1.042-2.858,2.463-3.799,4.11L50,24.852l-3.368-5.897 c-0.94-1.646-2.254-3.067-3.799-4.11C40.81,13.48,38.442,12.758,35.988,12.758z"/>
      </g>
    </g>
    <style type="text/css">@keyframes ld-pulse
{
  0% {
    animation-timing-function: cubic-bezier(0.0413,0.3905,0.5086,0.6902);
    transform: scale(1);
  }
  24.3% {
    animation-timing-function: cubic-bezier(0.2248,0.6332,0.5246,1);
    transform: scale(0.8458);
  }
  55% {
    animation-timing-function: cubic-bezier(0.3036,0.3393,0.655,0.6144);
    transform: scale(0.8022);
  }
  70.2% {
    animation-timing-function: cubic-bezier(0.4464,0.2728,0.5562,0.7288);
    transform: scale(0.8294);
  }
  82.3% {
    animation-timing-function: cubic-bezier(0.6826,0.1845,1,0.7358);
    transform: scale(0.869);
  }
  100% {
    transform: scale(1);
  }
}
.ld.ld-pulse {
  animation: ld-pulse 0.5s infinite;
}</style>
    <style type="text/css">.st19{fill:#0071bc}</style>
  </defs>
  <rect id="svgEditorBackground" x="0" y="0" width="256" height="256" style="fill:none;stroke:none;"/>
  <g transform="matrix(1, 0, 0, 1, 558.799622, -1.021046)">
    <use id="e16_use" transform="matrix(-1, 1.22465002895872e-16, -1.22465002895872e-16, -1, 266.66819763183594, 526.4289665222168)" xlink:href="#id-0.7074568088612447-2"/>
    <use id="e18_use" transform="matrix(-0.7071070075035095, 0.7071070075035095, -0.7071070075035095, -0.7071070075035095, 21.995420888721583, 395.5855811530532)" xlink:href="#id-0.7074568088612447-2"/>
    <use id="e17_use" transform="matrix(-1, 1.22465002895872e-16, -1.22465002895872e-16, -1, -306.9670104980469, 521.5469589233398)" xlink:href="#id-0.7074568088612447-2"/>
    <use transform="matrix(1, 0, 0, 1, 0, 0)" xlink:href="#id-0.7074568088612447-2"/>
    <use transform="matrix(1, 0, 0, 1, -256, 0)" xlink:href="#id-0.7074568088612447-2"/>
    <use id="e2_use" transform="matrix(6.123229630714409e-17, 1, -1, 6.123229630714409e-17, -297.41801834106445, -0.561004638671875)" width="0" height="0" xlink:href="#id-0.7074568088612447-2"/>
    <use id="e3_use" transform="matrix(1, 0, 0, 1, 820.1699829101562, 1.136870003519419e-13)" xlink:href="#id-0.7074568088612447-2"/>
    <use id="e4_use" transform="matrix(1, 0, 0, 1, 564.1699829101562, 1.136870003519419e-13)" xlink:href="#id-0.7074568088612447-2"/>
    <use id="e5_use" transform="matrix(6.123229630714409e-17, 1, -1, 6.123229630714409e-17, 522.7519645690918, -0.561004638671875)" width="0" height="0" xlink:href="#id-0.7074568088612447-2"/>
    <use id="e19_use" transform="matrix(1, 0, 0, 1, 834.8200073242188, 268.5199890136719)" xlink:href="#id-0.7074568088612447-2"/>
    <use id="e20_use" transform="matrix(1, 0, 0, 1, 578.8200073242188, 268.5199890136719)" xlink:href="#id-0.7074568088612447-2"/>
    <use id="e21_use" transform="matrix(6.123229630714409e-17, 1, -1, 6.123229630714409e-17, 537.4019889831543, 267.95899963378906)" width="0" height="0" xlink:href="#id-0.7074568088612447-2"/>
  </g>
</svg>